<svg xmlns="http://www.w3.org/2000/svg" xmlns:osb="http://www.openswatchbook.org/uri/2009/osb" xmlns:svg="http://www.w3.org/2000/svg" id="svg7384" width="16" height="16.031" version="1.1"><metadata id="metadata90"/><title id="title9167">Gnome Symbolic Icon Theme</title><defs id="defs7386"><linearGradient id="linearGradient7212" osb:paint="solid"><stop id="stop7214" offset="0" style="stop-color:#000;stop-opacity:1"/></linearGradient></defs><g id="layer9" transform="translate(-444.0002,35)" style="display:inline"><path id="rect7030" d="m 446.21875,-34 c -0.64785,0 -1.1875,0.539653 -1.1875,1.1875 l 0,4.625 c 0,0.647847 0.53965,1.1875 1.1875,1.1875 l 11.65625,0 c 0.64785,0 1.15625,-0.539653 1.15625,-1.1875 l 0,-4.625 c 0,-0.647847 -0.5084,-1.1875 -1.15625,-1.1875 l -11.65625,0 z m 0,1 11.65625,0 c 0.11114,0 0.15625,0.07636 0.15625,0.1875 l 0,4.625 c 0,0.111144 -0.0451,0.1875 -0.15625,0.1875 l -11.65625,0 c -0.11114,0 -0.1875,-0.07636 -0.1875,-0.1875 l 0,-4.625 c 0,-0.111144 0.0764,-0.1875 0.1875,-0.1875 z" style="font-size:medium;font-style:normal;font-variant:normal;font-weight:400;font-stretch:normal;text-indent:0;text-align:start;text-decoration:none;line-height:normal;letter-spacing:normal;word-spacing:normal;text-transform:none;direction:ltr;block-progression:tb;writing-mode:lr-tb;text-anchor:start;baseline-shift:baseline;color:#000;fill:#bebebe;fill-opacity:1;stroke:none;stroke-width:1;marker:none;visibility:visible;display:inline;overflow:visible;enable-background:new;font-family:Sans;-inkscape-font-specification:Sans"/><path id="path7800" d="m 454.0002,-32 0,1 0,0.0312 1.53125,1.375 1.46875,-1.4062 0,-1 -0.75781,0 -0.73828,0.74609 L 454.77754,-32 z" style="font-size:medium;font-style:normal;font-variant:normal;font-weight:400;font-stretch:normal;text-indent:0;text-align:start;text-decoration:none;line-height:normal;letter-spacing:normal;word-spacing:normal;text-transform:none;direction:ltr;block-progression:tb;writing-mode:lr-tb;text-anchor:start;baseline-shift:baseline;color:#000;fill:#bebebe;fill-opacity:1;stroke:none;stroke-width:1.39999998;marker:none;visibility:visible;display:inline;overflow:visible;enable-background:new;font-family:Sans;-inkscape-font-specification:Sans"/><path id="rect7811" d="m 446.21875,-26 c -0.64785,0 -1.1875,0.539653 -1.1875,1.1875 l 0,4.65625 c 0,0.647847 0.53965,1.1875 1.1875,1.1875 l 11.65625,0 c 0.64785,0 1.15625,-0.539653 1.15625,-1.1875 l 0,-4.65625 c 0,-0.647847 -0.5084,-1.1875 -1.15625,-1.1875 l -11.65625,0 z m 0,1 11.65625,0 c 0.11114,0 0.15625,0.07636 0.15625,0.1875 l 0,4.65625 c 0,0.111144 -0.0451,0.1875 -0.15625,0.1875 l -11.65625,0 c -0.11114,0 -0.1875,-0.07636 -0.1875,-0.1875 l 0,-4.65625 c 0,-0.111144 0.0764,-0.1875 0.1875,-0.1875 z" style="font-size:medium;font-style:normal;font-variant:normal;font-weight:400;font-stretch:normal;text-indent:0;text-align:start;text-decoration:none;line-height:normal;letter-spacing:normal;word-spacing:normal;text-transform:none;direction:ltr;block-progression:tb;writing-mode:lr-tb;text-anchor:start;baseline-shift:baseline;color:#000;fill:#bebebe;fill-opacity:1;stroke:none;stroke-width:1;marker:none;visibility:visible;display:inline;overflow:visible;enable-background:new;font-family:Sans;-inkscape-font-specification:Sans"/><rect id="rect7813" width="8" height="2" x="448" y="-24" rx="0" ry="0" style="color:#000;fill:#bebebe;fill-opacity:1;fill-rule:nonzero;stroke:none;stroke-width:1.39999998;marker:none;visibility:visible;display:inline;overflow:visible;enable-background:new"/><rect id="rect7815" width="12.861" height="1" x="445.531" y="-29" rx="0" ry="0" style="opacity:.3;color:#000;fill:#bebebe;fill-opacity:1;fill-rule:nonzero;stroke:none;stroke-width:1.39999998;marker:none;visibility:visible;display:inline;overflow:visible;enable-background:new"/><rect id="rect7817" width="12.861" height="1" x="445.531" y="-20.969" rx="0" ry="0" style="opacity:.3;color:#000;fill:#bebebe;fill-opacity:1;fill-rule:nonzero;stroke:none;stroke-width:1.39999998;marker:none;visibility:visible;display:inline;overflow:visible;enable-background:new"/></g></svg>