<svg xmlns="http://www.w3.org/2000/svg" xmlns:svg="http://www.w3.org/2000/svg" id="svg6535" width="64" height="64" version="1.1" viewBox="0 0 64 64"><metadata id="metadata6540"/><g id="layer1" transform="translate(180,-470.14793)"><path style="color:#000;clip-rule:nonzero;display:inline;overflow:visible;visibility:visible;opacity:1;isolation:auto;mix-blend-mode:normal;color-interpolation:sRGB;color-interpolation-filters:linearRGB;solid-color:#000;solid-opacity:1;fill:#000;fill-opacity:1;fill-rule:nonzero;stroke:#4a90d9;stroke-width:0;stroke-linecap:round;stroke-linejoin:miter;stroke-miterlimit:4;stroke-dasharray:none;stroke-dashoffset:0;stroke-opacity:1;marker:none;color-rendering:auto;image-rendering:auto;shape-rendering:auto;text-rendering:auto;enable-background:accumulate" id="rect7439" d="M 13 10.148438 L 3 19.648438 L 13 29.148438 L 13 22.148438 L 21.308594 22.148438 C 21.944495 24.718331 23.685966 26.857732 26 28.029297 L 26 47 L 25 47 L 25 39.185547 C 25 36.866788 23.215997 35 21 35 C 18.784003 35 17 36.866788 17 39.185547 L 17 47 L 17 55.814453 L 17 60 L 21 60 L 46 60 L 57 60 C 59.215997 60 61 58.133212 61 55.814453 L 61 43.185547 L 61 34.185547 C 61 31.866788 59.215997 30 57 30 C 54.784003 30 53 31.866788 53 34.185547 L 53 39 L 52 39 L 52 31.185547 C 52 28.866788 50.325274 27 48.246094 27 L 47.753906 27 C 45.674726 27 44 28.866788 44 31.185547 L 44 39 L 43 39 L 43 31.185547 C 43 28.866788 41.215997 27 39 27 C 36.784003 27 35 28.866788 35 31.185547 L 35 39 L 34 39 L 34 28.064453 C 36.975121 26.592197 39.037109 23.530537 39.037109 20 C 39.037109 15.0472 34.989899 11 30.037109 11 C 26.081006 11 22.709248 13.585082 21.509766 17.148438 L 13 17.148438 L 13 10.148438 z M 30.037109 14 C 33.368579 14 36.037109 16.66852 36.037109 20 C 36.037109 21.806375 35.249365 23.414863 34 24.511719 L 34 20.185547 C 34 17.866788 32.215997 16 30 16 C 27.784003 16 26 17.866788 26 20.185547 L 26 24.443359 C 24.794444 23.34842 24.037109 21.769849 24.037109 20 C 24.037109 16.66852 26.705639 14 30.037109 14 z" transform="translate(-180,470.14793)"/><g style="display:inline" id="g7483" transform="translate(92.5,114.14791)"><g id="g7481"><rect id="rect7465" width="8" height="25" x="-324" y="391" rx="4" ry="4.185" style="color:#000;clip-rule:nonzero;display:inline;overflow:visible;visibility:visible;opacity:1;isolation:auto;mix-blend-mode:normal;color-interpolation:sRGB;color-interpolation-filters:linearRGB;solid-color:#000;solid-opacity:1;fill:#000;fill-opacity:1;fill-rule:nonzero;stroke:#4a90d9;stroke-width:0;stroke-linecap:round;stroke-linejoin:miter;stroke-miterlimit:4;stroke-dasharray:none;stroke-dashoffset:0;stroke-opacity:1;marker:none;color-rendering:auto;image-rendering:auto;shape-rendering:auto;text-rendering:auto;enable-background:accumulate"/><rect style="color:#000;clip-rule:nonzero;display:inline;overflow:visible;visibility:visible;opacity:1;isolation:auto;mix-blend-mode:normal;color-interpolation:sRGB;color-interpolation-filters:linearRGB;solid-color:#000;solid-opacity:1;fill:#000;fill-opacity:1;fill-rule:nonzero;stroke:#4a90d9;stroke-width:0;stroke-linecap:round;stroke-linejoin:miter;stroke-miterlimit:4;stroke-dasharray:none;stroke-dashoffset:0;stroke-opacity:1;marker:none;color-rendering:auto;image-rendering:auto;shape-rendering:auto;text-rendering:auto;enable-background:accumulate" id="rect7467" width="8" height="44" x="-315" y="372" rx="4" ry="4.185"/><rect id="rect7469" width="8" height="33" x="-306" y="383" rx="4" ry="4.185" style="color:#000;clip-rule:nonzero;display:inline;overflow:visible;visibility:visible;opacity:1;isolation:auto;mix-blend-mode:normal;color-interpolation:sRGB;color-interpolation-filters:linearRGB;solid-color:#000;solid-opacity:1;fill:#000;fill-opacity:1;fill-rule:nonzero;stroke:#4a90d9;stroke-width:0;stroke-linecap:round;stroke-linejoin:miter;stroke-miterlimit:4;stroke-dasharray:none;stroke-dashoffset:0;stroke-opacity:1;marker:none;color-rendering:auto;image-rendering:auto;shape-rendering:auto;text-rendering:auto;enable-background:accumulate"/><rect style="color:#000;clip-rule:nonzero;display:inline;overflow:visible;visibility:visible;opacity:1;isolation:auto;mix-blend-mode:normal;color-interpolation:sRGB;color-interpolation-filters:linearRGB;solid-color:#000;solid-opacity:1;fill:#000;fill-opacity:1;fill-rule:nonzero;stroke:#4a90d9;stroke-width:0;stroke-linecap:round;stroke-linejoin:miter;stroke-miterlimit:4;stroke-dasharray:none;stroke-dashoffset:0;stroke-opacity:1;marker:none;color-rendering:auto;image-rendering:auto;shape-rendering:auto;text-rendering:auto;enable-background:accumulate" id="rect7471" width="8" height="33" x="-297" y="383" rx="3.753" ry="4.185"/><rect id="rect7473" width="8" height="30" x="-288" y="386" rx="4" ry="4.185" style="color:#000;clip-rule:nonzero;display:inline;overflow:visible;visibility:visible;opacity:1;isolation:auto;mix-blend-mode:normal;color-interpolation:sRGB;color-interpolation-filters:linearRGB;solid-color:#000;solid-opacity:1;fill:#000;fill-opacity:1;fill-rule:nonzero;stroke:#4a90d9;stroke-width:0;stroke-linecap:round;stroke-linejoin:miter;stroke-miterlimit:4;stroke-dasharray:none;stroke-dashoffset:0;stroke-opacity:1;marker:none;color-rendering:auto;image-rendering:auto;shape-rendering:auto;text-rendering:auto;enable-background:accumulate"/><rect style="color:#000;clip-rule:nonzero;display:inline;overflow:visible;visibility:visible;opacity:1;isolation:auto;mix-blend-mode:normal;color-interpolation:sRGB;color-interpolation-filters:linearRGB;solid-color:#000;solid-opacity:1;fill:#000;fill-opacity:1;fill-rule:nonzero;stroke:#4a90d9;stroke-width:0;stroke-linecap:round;stroke-linejoin:miter;stroke-miterlimit:4;stroke-dasharray:none;stroke-dashoffset:0;stroke-opacity:1;marker:none;color-rendering:auto;image-rendering:auto;shape-rendering:auto;text-rendering:auto;enable-background:accumulate" id="rect7475" width="29" height="13" x="-324" y="403"/><rect style="color:#000;clip-rule:nonzero;display:inline;overflow:visible;visibility:visible;opacity:1;isolation:auto;mix-blend-mode:normal;color-interpolation:sRGB;color-interpolation-filters:linearRGB;solid-color:#000;solid-opacity:1;fill:#000;fill-opacity:1;fill-rule:nonzero;stroke:#4a90d9;stroke-width:0;stroke-linecap:round;stroke-linejoin:miter;stroke-miterlimit:4;stroke-dasharray:none;stroke-dashoffset:0;stroke-opacity:1;marker:none;color-rendering:auto;image-rendering:auto;shape-rendering:auto;text-rendering:auto;enable-background:accumulate" id="rect7477" width="35" height="21" x="-315" y="395" rx="4" ry="4.185"/><ellipse style="color:#000;display:inline;overflow:visible;visibility:visible;fill:none;stroke:#000;stroke-width:3;stroke-linecap:round;stroke-linejoin:miter;stroke-miterlimit:4;stroke-dasharray:none;stroke-dashoffset:0;stroke-opacity:1;marker:none;enable-background:accumulate" id="ellipse7479" cx="-310.963" cy="376" rx="7.5" ry="7.5"/></g></g><path style="color:#000;display:inline;overflow:visible;visibility:visible;fill:#000;fill-opacity:1;fill-rule:nonzero;stroke:none;stroke-width:6;marker:none;enable-background:accumulate" id="path7485" d="m -235.5,499.29695 -10,-9.5 10,-9.5 z"/><rect style="color:#000;clip-rule:nonzero;display:inline;overflow:visible;visibility:visible;opacity:1;isolation:auto;mix-blend-mode:normal;color-interpolation:sRGB;color-interpolation-filters:linearRGB;solid-color:#000;solid-opacity:1;fill:#000;fill-opacity:1;fill-rule:nonzero;stroke:#4a90d9;stroke-width:0;stroke-linecap:round;stroke-linejoin:miter;stroke-miterlimit:4;stroke-dasharray:none;stroke-dashoffset:0;stroke-opacity:1;marker:none;color-rendering:auto;image-rendering:auto;shape-rendering:auto;text-rendering:auto;enable-background:accumulate" id="rect7487" width="13.061" height="5" x="226.125" y="-492.297" transform="scale(-1)"/></g></svg>