<svg xmlns="http://www.w3.org/2000/svg" xmlns:svg="http://www.w3.org/2000/svg" id="svg6535" width="64" height="64" version="1.1" viewBox="0 0 64 64"><metadata id="metadata6540"/><g id="layer1" transform="translate(180,-470.14793)"><path style="color:#000;clip-rule:nonzero;display:inline;overflow:visible;visibility:visible;opacity:1;isolation:auto;mix-blend-mode:normal;color-interpolation:sRGB;color-interpolation-filters:linearRGB;solid-color:#000;solid-opacity:1;fill:#000;fill-opacity:1;fill-rule:nonzero;stroke:#4a90d9;stroke-width:0;stroke-linecap:round;stroke-linejoin:miter;stroke-miterlimit:4;stroke-dasharray:none;stroke-dashoffset:0;stroke-opacity:1;marker:none;color-rendering:auto;image-rendering:auto;shape-rendering:auto;text-rendering:auto;enable-background:accumulate" id="rect7308" d="M 38.271484 6.0039062 C 37.981892 5.9956378 37.692703 6.0019094 37.40625 6.0214844 C 34.246377 6.2374271 31.332975 8.1249345 29.902344 11.082031 C 29.173793 10.990041 28.447857 10.978702 27.738281 11.0625 C 24.36672 11.460668 21.373919 13.762084 20.242188 17.148438 L 12 17.148438 L 12 10.148438 L 2 19.648438 L 12 29.148438 L 12 22.148438 L 20.048828 22.148438 C 20.694441 24.742195 22.473591 26.994506 25 28.162109 L 25 47 L 24 47 L 24 39.185547 C 24 36.866788 22.215997 35 20 35 C 17.784003 35 16 36.866788 16 39.185547 L 16 47 L 16 55.814453 L 16 60 L 20 60 L 45 60 L 56 60 C 58.215997 60 60 58.133212 60 55.814453 L 60 43.185547 L 60 34.185547 C 60 31.866788 58.215997 30 56 30 C 53.784003 30 52 31.866788 52 34.185547 L 52 39 L 51 39 L 51 28.185547 C 51 25.866788 49.215997 24 47 24 C 44.784003 24 43 25.866788 43 28.185547 L 43 39 L 42 39 L 42 23.042969 C 44.136586 21.978813 45.853243 20.084457 46.603516 17.640625 C 48.028796 12.998095 45.481769 8.0270562 40.880859 6.4726562 C 40.018187 6.1812063 39.140263 6.0287116 38.271484 6.0039062 z M 38.171875 8.9980469 C 38.752124 9.0164906 39.339992 9.1204781 39.919922 9.3164062 C 43.012882 10.361346 44.694478 13.640769 43.736328 16.761719 C 43.402083 17.85044 42.787396 18.769252 42 19.474609 L 42 15.185547 C 42 12.866788 40.215997 11 38 11 C 35.784003 11 34 12.866788 34 15.185547 L 34 22.945312 C 33.72503 23.436938 33.386634 23.876948 33 24.261719 L 33 20.185547 C 33 17.866788 31.215997 16 29 16 C 26.784003 16 25 17.866788 25 20.185547 L 25 24.666016 C 23.150282 23.179661 22.297135 20.683826 23.027344 18.265625 C 23.981604 15.105485 27.261604 13.320305 30.433594 14.234375 A 1.50015 1.50015 0 0 0 32.361328 12.945312 A 1.50015 1.50015 0 0 0 32.371094 12.921875 C 33.289974 10.433529 35.657461 8.9181241 38.171875 8.9980469 z M 34 27.302734 L 34 39 L 33 39 L 33 27.925781 C 33.346618 27.7409 33.679606 27.531269 34 27.302734 z" transform="translate(-180,470.14793)"/><g style="display:inline" id="g7391" transform="translate(80,114.14791)"><g id="g7393"><rect id="rect7395" width="8" height="25" x="-324" y="391" rx="4" ry="4.185" style="color:#000;clip-rule:nonzero;display:inline;overflow:visible;visibility:visible;opacity:1;isolation:auto;mix-blend-mode:normal;color-interpolation:sRGB;color-interpolation-filters:linearRGB;solid-color:#000;solid-opacity:1;fill:#000;fill-opacity:1;fill-rule:nonzero;stroke:#4a90d9;stroke-width:0;stroke-linecap:round;stroke-linejoin:miter;stroke-miterlimit:4;stroke-dasharray:none;stroke-dashoffset:0;stroke-opacity:1;marker:none;color-rendering:auto;image-rendering:auto;shape-rendering:auto;text-rendering:auto;enable-background:accumulate"/><rect style="color:#000;clip-rule:nonzero;display:inline;overflow:visible;visibility:visible;opacity:1;isolation:auto;mix-blend-mode:normal;color-interpolation:sRGB;color-interpolation-filters:linearRGB;solid-color:#000;solid-opacity:1;fill:#000;fill-opacity:1;fill-rule:nonzero;stroke:#4a90d9;stroke-width:0;stroke-linecap:round;stroke-linejoin:miter;stroke-miterlimit:4;stroke-dasharray:none;stroke-dashoffset:0;stroke-opacity:1;marker:none;color-rendering:auto;image-rendering:auto;shape-rendering:auto;text-rendering:auto;enable-background:accumulate" id="rect7397" width="8" height="44" x="-315" y="372" rx="4" ry="4.185"/><rect id="rect7399" width="8" height="49" x="-306" y="367" rx="4" ry="4.185" style="color:#000;clip-rule:nonzero;display:inline;overflow:visible;visibility:visible;opacity:1;isolation:auto;mix-blend-mode:normal;color-interpolation:sRGB;color-interpolation-filters:linearRGB;solid-color:#000;solid-opacity:1;fill:#000;fill-opacity:1;fill-rule:nonzero;stroke:#4a90d9;stroke-width:0;stroke-linecap:round;stroke-linejoin:miter;stroke-miterlimit:4;stroke-dasharray:none;stroke-dashoffset:0;stroke-opacity:1;marker:none;color-rendering:auto;image-rendering:auto;shape-rendering:auto;text-rendering:auto;enable-background:accumulate"/><rect style="color:#000;clip-rule:nonzero;display:inline;overflow:visible;visibility:visible;opacity:1;isolation:auto;mix-blend-mode:normal;color-interpolation:sRGB;color-interpolation-filters:linearRGB;solid-color:#000;solid-opacity:1;fill:#000;fill-opacity:1;fill-rule:nonzero;stroke:#4a90d9;stroke-width:0;stroke-linecap:round;stroke-linejoin:miter;stroke-miterlimit:4;stroke-dasharray:none;stroke-dashoffset:0;stroke-opacity:1;marker:none;color-rendering:auto;image-rendering:auto;shape-rendering:auto;text-rendering:auto;enable-background:accumulate" id="rect7401" width="8" height="36" x="-297" y="380" rx="4" ry="4.185"/><rect id="rect7403" width="8" height="30" x="-288" y="386" rx="4" ry="4.185" style="color:#000;clip-rule:nonzero;display:inline;overflow:visible;visibility:visible;opacity:1;isolation:auto;mix-blend-mode:normal;color-interpolation:sRGB;color-interpolation-filters:linearRGB;solid-color:#000;solid-opacity:1;fill:#000;fill-opacity:1;fill-rule:nonzero;stroke:#4a90d9;stroke-width:0;stroke-linecap:round;stroke-linejoin:miter;stroke-miterlimit:4;stroke-dasharray:none;stroke-dashoffset:0;stroke-opacity:1;marker:none;color-rendering:auto;image-rendering:auto;shape-rendering:auto;text-rendering:auto;enable-background:accumulate"/><rect style="color:#000;clip-rule:nonzero;display:inline;overflow:visible;visibility:visible;opacity:1;isolation:auto;mix-blend-mode:normal;color-interpolation:sRGB;color-interpolation-filters:linearRGB;solid-color:#000;solid-opacity:1;fill:#000;fill-opacity:1;fill-rule:nonzero;stroke:#4a90d9;stroke-width:0;stroke-linecap:round;stroke-linejoin:miter;stroke-miterlimit:4;stroke-dasharray:none;stroke-dashoffset:0;stroke-opacity:1;marker:none;color-rendering:auto;image-rendering:auto;shape-rendering:auto;text-rendering:auto;enable-background:accumulate" id="rect7405" width="29" height="13" x="-324" y="403"/><rect style="color:#000;clip-rule:nonzero;display:inline;overflow:visible;visibility:visible;opacity:1;isolation:auto;mix-blend-mode:normal;color-interpolation:sRGB;color-interpolation-filters:linearRGB;solid-color:#000;solid-opacity:1;fill:#000;fill-opacity:1;fill-rule:nonzero;stroke:#4a90d9;stroke-width:0;stroke-linecap:round;stroke-linejoin:miter;stroke-miterlimit:4;stroke-dasharray:none;stroke-dashoffset:0;stroke-opacity:1;marker:none;color-rendering:auto;image-rendering:auto;shape-rendering:auto;text-rendering:auto;enable-background:accumulate" id="rect7407" width="35" height="21" x="-315" y="395" rx="4" ry="4.185"/><path id="path7409" d="m -309.03562,368.40192 a 7.4999938,7.5000024 0 0 1 9.43617,-4.50737 7.4999938,7.5000024 0 0 1 4.76917,9.30661 7.4999938,7.5000024 0 0 1 -9.16976,5.02725" style="color:#000;display:inline;overflow:visible;visibility:visible;fill:none;stroke:#000;stroke-width:3;stroke-linecap:round;stroke-linejoin:miter;stroke-miterlimit:4;stroke-dasharray:none;stroke-dashoffset:0;stroke-opacity:1;marker:none;enable-background:accumulate"/><path style="color:#000;display:inline;overflow:visible;visibility:visible;fill:none;stroke:#000;stroke-width:3;stroke-linecap:round;stroke-linejoin:miter;stroke-miterlimit:4;stroke-dasharray:none;stroke-dashoffset:0;stroke-opacity:1;marker:none;enable-background:accumulate" id="path7411" d="m -304.10552,378.34925 a 7.4999938,7.5000024 0 0 1 -9.38146,4.80209 7.4999938,7.5000024 0 0 1 -4.92078,-9.31976 7.4999938,7.5000024 0 0 1 9.25653,-5.03869"/></g></g><path style="color:#000;display:inline;overflow:visible;visibility:visible;fill:#000;fill-opacity:1;fill-rule:nonzero;stroke:none;stroke-width:6;marker:none;enable-background:accumulate" id="path7413" d="m -248,499.29695 -10,-9.5 10,-9.5 z"/><rect style="color:#000;clip-rule:nonzero;display:inline;overflow:visible;visibility:visible;opacity:1;isolation:auto;mix-blend-mode:normal;color-interpolation:sRGB;color-interpolation-filters:linearRGB;solid-color:#000;solid-opacity:1;fill:#000;fill-opacity:1;fill-rule:nonzero;stroke:#4a90d9;stroke-width:0;stroke-linecap:round;stroke-linejoin:miter;stroke-miterlimit:4;stroke-dasharray:none;stroke-dashoffset:0;stroke-opacity:1;marker:none;color-rendering:auto;image-rendering:auto;shape-rendering:auto;text-rendering:auto;enable-background:accumulate" id="rect7415" width="13.061" height="5" x="238.625" y="-492.297" transform="scale(-1,-1)"/></g></svg>