<svg xmlns="http://www.w3.org/2000/svg" xmlns:svg="http://www.w3.org/2000/svg" id="svg6535" width="64" height="64" version="1.1" viewBox="0 0 64 64"><metadata id="metadata6540"/><g id="layer1" transform="translate(180,-470.14793)"><path style="color:#000;clip-rule:nonzero;display:inline;overflow:visible;visibility:visible;opacity:1;isolation:auto;mix-blend-mode:normal;color-interpolation:sRGB;color-interpolation-filters:linearRGB;solid-color:#000;solid-opacity:1;fill:#000;fill-opacity:1;fill-rule:nonzero;stroke:#4a90d9;stroke-width:0;stroke-linecap:round;stroke-linejoin:miter;stroke-miterlimit:4;stroke-dasharray:none;stroke-dashoffset:0;stroke-opacity:1;marker:none;color-rendering:auto;image-rendering:auto;shape-rendering:auto;text-rendering:auto;enable-background:accumulate" id="rect7529" d="M 46.037109 10.148438 L 46.037109 17.148438 L 30.539062 17.148438 C 29.339581 13.585082 25.967822 11 22.011719 11 C 17.058929 11 13.011719 15.0472 13.011719 20 C 13.011719 23.501407 15.039146 26.543111 17.974609 28.029297 L 17.974609 47 L 16.974609 47 L 16.974609 39.185547 C 16.974609 36.866788 15.190607 35 12.974609 35 C 10.758612 35 8.9746094 36.866788 8.9746094 39.185547 L 8.9746094 47 L 8.9746094 55.814453 L 8.9746094 60 L 12.974609 60 L 37.974609 60 L 48.974609 60 C 51.190607 60 52.974609 58.133212 52.974609 55.814453 L 52.974609 43.185547 L 52.974609 34.185547 C 52.974609 31.866788 51.190607 30 48.974609 30 C 46.758612 30 44.974609 31.866788 44.974609 34.185547 L 44.974609 39 L 43.974609 39 L 43.974609 31.185547 C 43.974609 28.866788 42.301836 27 40.222656 27 L 39.728516 27 C 37.649336 27 35.974609 28.866788 35.974609 31.185547 L 35.974609 39 L 34.974609 39 L 34.974609 31.185547 C 34.974609 28.866788 33.190607 27 30.974609 27 C 28.758612 27 26.974609 28.866788 26.974609 31.185547 L 26.974609 39 L 25.974609 39 L 25.974609 28.064453 C 28.325102 26.901298 30.097622 24.745453 30.740234 22.148438 L 46.037109 22.148438 L 46.037109 29.148438 L 56.037109 19.648438 L 46.037109 10.148438 z M 22.011719 14 C 25.343189 14 28.011719 16.66852 28.011719 20 C 28.011719 21.806375 27.223975 23.414863 25.974609 24.511719 L 25.974609 20.185547 C 25.974609 17.866788 24.190607 16 21.974609 16 C 19.758612 16 17.974609 17.866788 17.974609 20.185547 L 17.974609 24.443359 C 16.769053 23.34842 16.011719 21.769849 16.011719 20 C 16.011719 16.66852 18.680249 14 22.011719 14 z" transform="translate(-180,470.14793)"/><g style="display:inline" id="g7571" transform="translate(72.97508,114.14791)"><g id="g7569"><rect id="rect7553" width="8" height="25" x="-324" y="391" rx="4" ry="4.185" style="color:#000;clip-rule:nonzero;display:inline;overflow:visible;visibility:visible;opacity:1;isolation:auto;mix-blend-mode:normal;color-interpolation:sRGB;color-interpolation-filters:linearRGB;solid-color:#000;solid-opacity:1;fill:#000;fill-opacity:1;fill-rule:nonzero;stroke:#4a90d9;stroke-width:0;stroke-linecap:round;stroke-linejoin:miter;stroke-miterlimit:4;stroke-dasharray:none;stroke-dashoffset:0;stroke-opacity:1;marker:none;color-rendering:auto;image-rendering:auto;shape-rendering:auto;text-rendering:auto;enable-background:accumulate"/><rect style="color:#000;clip-rule:nonzero;display:inline;overflow:visible;visibility:visible;opacity:1;isolation:auto;mix-blend-mode:normal;color-interpolation:sRGB;color-interpolation-filters:linearRGB;solid-color:#000;solid-opacity:1;fill:#000;fill-opacity:1;fill-rule:nonzero;stroke:#4a90d9;stroke-width:0;stroke-linecap:round;stroke-linejoin:miter;stroke-miterlimit:4;stroke-dasharray:none;stroke-dashoffset:0;stroke-opacity:1;marker:none;color-rendering:auto;image-rendering:auto;shape-rendering:auto;text-rendering:auto;enable-background:accumulate" id="rect7555" width="8" height="44" x="-315" y="372" rx="4" ry="4.185"/><rect id="rect7557" width="8" height="33" x="-306" y="383" rx="4" ry="4.185" style="color:#000;clip-rule:nonzero;display:inline;overflow:visible;visibility:visible;opacity:1;isolation:auto;mix-blend-mode:normal;color-interpolation:sRGB;color-interpolation-filters:linearRGB;solid-color:#000;solid-opacity:1;fill:#000;fill-opacity:1;fill-rule:nonzero;stroke:#4a90d9;stroke-width:0;stroke-linecap:round;stroke-linejoin:miter;stroke-miterlimit:4;stroke-dasharray:none;stroke-dashoffset:0;stroke-opacity:1;marker:none;color-rendering:auto;image-rendering:auto;shape-rendering:auto;text-rendering:auto;enable-background:accumulate"/><rect style="color:#000;clip-rule:nonzero;display:inline;overflow:visible;visibility:visible;opacity:1;isolation:auto;mix-blend-mode:normal;color-interpolation:sRGB;color-interpolation-filters:linearRGB;solid-color:#000;solid-opacity:1;fill:#000;fill-opacity:1;fill-rule:nonzero;stroke:#4a90d9;stroke-width:0;stroke-linecap:round;stroke-linejoin:miter;stroke-miterlimit:4;stroke-dasharray:none;stroke-dashoffset:0;stroke-opacity:1;marker:none;color-rendering:auto;image-rendering:auto;shape-rendering:auto;text-rendering:auto;enable-background:accumulate" id="rect7559" width="8" height="33" x="-297" y="383" rx="3.753" ry="4.185"/><rect id="rect7561" width="8" height="30" x="-288" y="386" rx="4" ry="4.185" style="color:#000;clip-rule:nonzero;display:inline;overflow:visible;visibility:visible;opacity:1;isolation:auto;mix-blend-mode:normal;color-interpolation:sRGB;color-interpolation-filters:linearRGB;solid-color:#000;solid-opacity:1;fill:#000;fill-opacity:1;fill-rule:nonzero;stroke:#4a90d9;stroke-width:0;stroke-linecap:round;stroke-linejoin:miter;stroke-miterlimit:4;stroke-dasharray:none;stroke-dashoffset:0;stroke-opacity:1;marker:none;color-rendering:auto;image-rendering:auto;shape-rendering:auto;text-rendering:auto;enable-background:accumulate"/><rect style="color:#000;clip-rule:nonzero;display:inline;overflow:visible;visibility:visible;opacity:1;isolation:auto;mix-blend-mode:normal;color-interpolation:sRGB;color-interpolation-filters:linearRGB;solid-color:#000;solid-opacity:1;fill:#000;fill-opacity:1;fill-rule:nonzero;stroke:#4a90d9;stroke-width:0;stroke-linecap:round;stroke-linejoin:miter;stroke-miterlimit:4;stroke-dasharray:none;stroke-dashoffset:0;stroke-opacity:1;marker:none;color-rendering:auto;image-rendering:auto;shape-rendering:auto;text-rendering:auto;enable-background:accumulate" id="rect7563" width="29" height="13" x="-324" y="403"/><rect style="color:#000;clip-rule:nonzero;display:inline;overflow:visible;visibility:visible;opacity:1;isolation:auto;mix-blend-mode:normal;color-interpolation:sRGB;color-interpolation-filters:linearRGB;solid-color:#000;solid-opacity:1;fill:#000;fill-opacity:1;fill-rule:nonzero;stroke:#4a90d9;stroke-width:0;stroke-linecap:round;stroke-linejoin:miter;stroke-miterlimit:4;stroke-dasharray:none;stroke-dashoffset:0;stroke-opacity:1;marker:none;color-rendering:auto;image-rendering:auto;shape-rendering:auto;text-rendering:auto;enable-background:accumulate" id="rect7565" width="35" height="21" x="-315" y="395" rx="4" ry="4.185"/><ellipse style="color:#000;display:inline;overflow:visible;visibility:visible;fill:none;stroke:#000;stroke-width:3;stroke-linecap:round;stroke-linejoin:miter;stroke-miterlimit:4;stroke-dasharray:none;stroke-dashoffset:0;stroke-opacity:1;marker:none;enable-background:accumulate" id="ellipse7567" cx="-310.963" cy="376" rx="7.5" ry="7.5"/></g></g><path style="color:#000;display:inline;overflow:visible;visibility:visible;fill:#000;fill-opacity:1;fill-rule:nonzero;stroke:none;stroke-width:6;marker:none;enable-background:accumulate" id="path7573" d="m -213.96236,499.29695 10,-9.5 -10,-9.5 z"/><rect style="color:#000;clip-rule:nonzero;display:inline;overflow:visible;visibility:visible;opacity:1;isolation:auto;mix-blend-mode:normal;color-interpolation:sRGB;color-interpolation-filters:linearRGB;solid-color:#000;solid-opacity:1;fill:#000;fill-opacity:1;fill-rule:nonzero;stroke:#4a90d9;stroke-width:0;stroke-linecap:round;stroke-linejoin:miter;stroke-miterlimit:4;stroke-dasharray:none;stroke-dashoffset:0;stroke-opacity:1;marker:none;color-rendering:auto;image-rendering:auto;shape-rendering:auto;text-rendering:auto;enable-background:accumulate" id="rect7575" width="20.724" height="5" x="-231" y="-492.297" transform="scale(1,-1)"/></g></svg>