<svg xmlns="http://www.w3.org/2000/svg" xmlns:svg="http://www.w3.org/2000/svg" id="svg6660" width="64" height="64" version="1.1" viewBox="0 0 64 64"><metadata id="metadata6665"/><g id="layer1" transform="translate(1077.1429,-641.07582)"><path style="color:#000;display:inline;overflow:visible;visibility:visible;fill:none;stroke:#000;stroke-width:3;stroke-linecap:round;stroke-linejoin:miter;stroke-miterlimit:4;stroke-dasharray:none;stroke-dashoffset:0;stroke-opacity:1;marker:none;enable-background:accumulate" id="path4223" cx="-1106.794" cy="-577.372" rx="7.5" ry="7.5" transform="matrix(0.50000001,-0.8660254,0.8660254,0.50000001,0,0)"/><path style="color:#000;clip-rule:nonzero;display:inline;overflow:visible;visibility:visible;opacity:1;isolation:auto;mix-blend-mode:normal;color-interpolation:sRGB;color-interpolation-filters:linearRGB;solid-color:#000;solid-opacity:1;fill:#000;fill-opacity:1;fill-rule:nonzero;stroke:#4a90d9;stroke-width:0;stroke-linecap:round;stroke-linejoin:miter;stroke-miterlimit:4;stroke-dasharray:none;stroke-dashoffset:0;stroke-opacity:1;marker:none;color-rendering:auto;image-rendering:auto;shape-rendering:auto;text-rendering:auto;enable-background:accumulate" id="rect4211" d="m 30.978516,13.310547 c -2.207639,0.03872 -3.966459,1.858733 -3.929688,4.066406 l 0.05273,22.876953 c 0,0.642649 -0.67295,0.87956 -0.910156,0.373047 L 18.742188,24.804688 c -0.621941,-1.370965 -1.960897,-2.276685 -3.464844,-2.34375 -3.031568,-0.134912 -5.103626,3.02251 -3.773438,5.75 l 8.003906,16.998046 c -0.773572,0.82429 -1.941423,1.030647 -3.832031,0.09961 L 12.714844,40.179688 C 11.555464,38.171583 9.0877248,37.440537 7.1816406,38.541016 l -0.3828125,0.220703 c -1.9060842,1.100478 -2.5070358,3.603224 -1.3476562,5.611328 l 6.3964841,11.080078 c 0.145898,0.252702 0.312481,0.484172 0.496094,0.695313 l 1.599609,3.548828 C 14.606259,61.127306 15.445616,62 17.478516,62 l 12.875,0 0.0098,0 17.94336,0 C 50.907298,62 53,59.866806 53,57.216797 L 53,42.783203 53,39 c 0,-2.215997 -1.784003,-4 -4,-4 -1.868548,0 -3.417636,1.273706 -3.861328,3 L 44,38 44,36 c 0,-2.215997 -1.682015,-4 -3.771484,-4 l -0.457032,0 C 37.682015,32 36,33.784003 36,36 l 0,2 -0.900391,0 -0.05078,-20.642578 c 0.02655,-2.255146 -1.815356,-4.086446 -4.070312,-4.046875 z" transform="translate(-1077.1429,641.07582)"/><path style="color:#000;font-style:normal;font-variant:normal;font-weight:400;font-stretch:normal;font-size:medium;line-height:normal;font-family:sans-serif;text-indent:0;text-align:start;text-decoration:none;text-decoration-line:none;text-decoration-style:solid;text-decoration-color:#000;letter-spacing:normal;word-spacing:normal;text-transform:none;direction:ltr;block-progression:tb;writing-mode:lr-tb;baseline-shift:baseline;text-anchor:start;white-space:normal;clip-rule:nonzero;display:inline;overflow:visible;visibility:visible;opacity:1;isolation:auto;mix-blend-mode:normal;color-interpolation:sRGB;color-interpolation-filters:linearRGB;solid-color:#000;solid-opacity:1;fill:#000;fill-opacity:1;fill-rule:nonzero;stroke:none;stroke-width:3;stroke-linecap:round;stroke-linejoin:miter;stroke-miterlimit:4;stroke-dasharray:none;stroke-dashoffset:0;stroke-opacity:1;marker:none;color-rendering:auto;image-rendering:auto;shape-rendering:auto;text-rendering:auto;enable-background:accumulate" id="path4223-9" d="m -1055.796,661.45421 c 3.5021,3.50216 3.5021,9.22577 0,12.72793 -3.5022,3.50215 -9.2258,3.50215 -12.728,0 -3.5021,-3.50216 -3.5021,-9.22577 0,-12.72793 3.5022,-3.50215 9.2258,-3.50215 12.728,0 z m -2.1214,2.12132 c -2.3557,-2.3557 -6.1295,-2.35572 -8.4852,0 -2.3558,2.35573 -2.3558,6.12958 0,8.48529 2.3557,2.3557 6.1295,2.35572 8.4852,0 2.3558,-2.35573 2.3557,-6.12958 0,-8.48529 z"/><path style="color:#000;font-style:normal;font-variant:normal;font-weight:400;font-stretch:normal;font-size:medium;line-height:normal;font-family:sans-serif;text-indent:0;text-align:start;text-decoration:none;text-decoration-line:none;text-decoration-style:solid;text-decoration-color:#000;letter-spacing:normal;word-spacing:normal;text-transform:none;direction:ltr;block-progression:tb;writing-mode:lr-tb;baseline-shift:baseline;text-anchor:start;white-space:normal;clip-rule:nonzero;display:inline;overflow:visible;visibility:visible;opacity:1;isolation:auto;mix-blend-mode:normal;color-interpolation:sRGB;color-interpolation-filters:linearRGB;solid-color:#000;solid-opacity:1;fill:#000;fill-opacity:1;fill-rule:nonzero;stroke:none;stroke-width:3;stroke-linecap:round;stroke-linejoin:miter;stroke-miterlimit:4;stroke-dasharray:none;stroke-dashoffset:0;stroke-opacity:1;marker:none;color-rendering:auto;image-rendering:auto;shape-rendering:auto;text-rendering:auto;enable-background:accumulate" id="path4225" d="m -1039.8047,651.73291 c 3.5022,3.50215 3.5022,9.22576 0,12.72792 -3.5021,3.50216 -9.2258,3.50215 -12.7279,0 -3.5022,-3.50216 -3.5022,-9.22576 0,-12.72792 3.5022,-3.50216 9.2258,-3.50216 12.7279,0 z m -2.1213,2.12132 c -2.3557,-2.35571 -6.1296,-2.35573 -8.4853,0 -2.3556,2.35566 -2.3557,6.12958 0,8.48528 2.3557,2.35571 6.1296,2.35566 8.4853,0 2.3557,-2.35573 2.3557,-6.12958 0,-8.48528 z"/><path id="path4245" d="m -1032.1613,644.89328 -4.7401,4.70081 4.9374,4.49282 z" style="color:#000;display:inline;overflow:visible;visibility:visible;fill:#000;fill-opacity:1;fill-rule:nonzero;stroke:none;stroke-width:6;marker:none;enable-background:accumulate"/><path id="ellipse4229" d="m -1079.5138,-570.79169 a 11.002314,11.002327 0 0 1 2.1442,8.87888 11.002314,11.002327 0 0 1 -5.3009,7.4386" transform="matrix(0.50000001,-0.8660254,0.8660254,0.5,0,0)" style="color:#000;display:inline;overflow:visible;visibility:visible;fill:none;stroke:#000;stroke-width:2.99999976;stroke-linecap:butt;stroke-linejoin:miter;stroke-miterlimit:4;stroke-dasharray:none;stroke-dashoffset:0;stroke-opacity:1;marker:none;enable-background:accumulate"/><rect id="rect7306" width="8.389" height="21.165" x="-1374.761" y="-6.415" rx="3.973" ry="4.185" transform="matrix(0.8660254,-0.5,0.5,0.8660254,0,0)" style="color:#000;clip-rule:nonzero;display:inline;overflow:visible;visibility:visible;opacity:1;isolation:auto;mix-blend-mode:normal;color-interpolation:sRGB;color-interpolation-filters:linearRGB;solid-color:#000;solid-opacity:1;fill:#000;fill-opacity:1;fill-rule:nonzero;stroke:#4a90d9;stroke-width:0;stroke-linecap:round;stroke-linejoin:miter;stroke-miterlimit:4;stroke-dasharray:none;stroke-dashoffset:0;stroke-opacity:1;marker:none;color-rendering:auto;image-rendering:auto;shape-rendering:auto;text-rendering:auto;enable-background:accumulate"/><rect style="color:#000;clip-rule:nonzero;display:inline;overflow:visible;visibility:visible;opacity:1;isolation:auto;mix-blend-mode:normal;color-interpolation:sRGB;color-interpolation-filters:linearRGB;solid-color:#000;solid-opacity:1;fill:#000;fill-opacity:1;fill-rule:nonzero;stroke:#4a90d9;stroke-width:0;stroke-linecap:round;stroke-linejoin:miter;stroke-miterlimit:4;stroke-dasharray:none;stroke-dashoffset:0;stroke-opacity:1;marker:none;color-rendering:auto;image-rendering:auto;shape-rendering:auto;text-rendering:auto;enable-background:accumulate" id="rect7308" width="8" height="20.929" x="-1161.143" y="673.076" rx="3.772" ry="4"/><rect id="rect7310" width="8" height="18.381" x="-1152.143" y="676.076" rx="4" ry="4" style="color:#000;clip-rule:nonzero;display:inline;overflow:visible;visibility:visible;opacity:1;isolation:auto;mix-blend-mode:normal;color-interpolation:sRGB;color-interpolation-filters:linearRGB;solid-color:#000;solid-opacity:1;fill:#000;fill-opacity:1;fill-rule:nonzero;stroke:#4a90d9;stroke-width:0;stroke-linecap:round;stroke-linejoin:miter;stroke-miterlimit:4;stroke-dasharray:none;stroke-dashoffset:0;stroke-opacity:1;marker:none;color-rendering:auto;image-rendering:auto;shape-rendering:auto;text-rendering:auto;enable-background:accumulate"/><path id="path7312" d="m -1183.2276,685.33054 c 4.1113,2.85277 5.6524,1.6667 6.4893,-0.62598 l 15.1527,18.2581 -24.6089,-8.74318 c -0.4862,-1.41421 -0.6185,-2.72414 -0.6185,-4.23285 z" style="color:#000;clip-rule:nonzero;display:inline;overflow:visible;visibility:visible;opacity:1;isolation:auto;mix-blend-mode:normal;color-interpolation:sRGB;color-interpolation-filters:linearRGB;solid-color:#000;solid-opacity:1;fill:#000;fill-opacity:1;fill-rule:nonzero;stroke:#4a90d9;stroke-width:0;stroke-linecap:round;stroke-linejoin:miter;stroke-miterlimit:4;stroke-dasharray:none;stroke-dashoffset:0;stroke-opacity:1;marker:none;color-rendering:auto;image-rendering:auto;shape-rendering:auto;text-rendering:auto;enable-background:accumulate"/><rect style="color:#000;clip-rule:nonzero;display:inline;overflow:visible;visibility:visible;opacity:1;isolation:auto;mix-blend-mode:normal;color-interpolation:sRGB;color-interpolation-filters:linearRGB;solid-color:#000;solid-opacity:1;fill:#000;fill-opacity:1;fill-rule:nonzero;stroke:#4a90d9;stroke-width:0;stroke-linecap:round;stroke-linejoin:miter;stroke-miterlimit:4;stroke-dasharray:none;stroke-dashoffset:0;stroke-opacity:1;marker:none;color-rendering:auto;image-rendering:auto;shape-rendering:auto;text-rendering:auto;enable-background:accumulate" id="rect7314" width="27.331" height="24" x="-1171.474" y="679.076" rx="4.694" ry="4.783"/><ellipse id="ellipse7316" cx="363.694" cy="1308.132" rx="7.5" ry="7.5" transform="matrix(-0.70710679,-0.70710677,-0.70710677,0.70710679,0,0)" style="color:#000;display:inline;overflow:visible;visibility:visible;fill:none;stroke:#000;stroke-width:3;stroke-linecap:round;stroke-linejoin:miter;stroke-miterlimit:4;stroke-dasharray:none;stroke-dashoffset:0;stroke-opacity:1;marker:none;enable-background:accumulate"/><ellipse style="color:#000;display:inline;overflow:visible;visibility:visible;fill:none;stroke:#000;stroke-width:3;stroke-linecap:round;stroke-linejoin:miter;stroke-miterlimit:4;stroke-dasharray:none;stroke-dashoffset:0;stroke-opacity:1;marker:none;enable-background:accumulate" id="ellipse7318" cx="359.262" cy="1289.951" rx="7.5" ry="7.5" transform="matrix(-0.70710679,-0.70710677,-0.70710677,0.70710679,0,0)"/><circle id="circle7320" cx="-1307.857" cy="-363.817" r="3.999" transform="matrix(0.70710678,-0.70710678,0.70710678,0.70710678,0,0)" style="opacity:1;fill:#215d9c;fill-opacity:.31564989;stroke:#fff;stroke-width:0;stroke-linecap:square;stroke-miterlimit:4;stroke-dasharray:none;stroke-dashoffset:0;stroke-opacity:1"/><circle style="opacity:1;fill:#215d9c;fill-opacity:.31564989;stroke:#fff;stroke-width:0;stroke-linecap:square;stroke-miterlimit:4;stroke-dasharray:none;stroke-dashoffset:0;stroke-opacity:1" id="circle7322" cx="-1290.079" cy="-359.04" r="3.999" transform="matrix(0.70710678,-0.70710678,0.70710678,0.70710678,0,0)"/><path id="path7324" d="m -1166.0941,658.4427 0.084,34.77472" style="fill:none;fill-rule:evenodd;stroke:#000;stroke-width:8;stroke-linecap:round;stroke-linejoin:miter;stroke-miterlimit:4;stroke-dasharray:none;stroke-opacity:1"/><path id="path7326" d="m -1182.0197,667.58384 12.5869,26.73292" style="fill:none;fill-rule:evenodd;stroke:#000;stroke-width:8;stroke-linecap:round;stroke-linejoin:miter;stroke-miterlimit:4;stroke-dasharray:none;stroke-opacity:1"/><path id="path7328" d="m -1152.8599,703.07481 -26.8038,0.001 c -2.0329,0 -2.8726,-0.87279 -3.5355,-2.30283 l -2.961,-6.56927 z" style="color:#000;clip-rule:nonzero;display:inline;overflow:visible;visibility:visible;opacity:1;isolation:auto;mix-blend-mode:normal;color-interpolation:sRGB;color-interpolation-filters:linearRGB;solid-color:#000;solid-opacity:1;fill:#000;fill-opacity:1;fill-rule:nonzero;stroke:none;stroke-width:2;stroke-linecap:butt;stroke-linejoin:miter;stroke-miterlimit:4;stroke-dasharray:none;stroke-dashoffset:0;stroke-opacity:1;marker:none;marker-start:none;marker-mid:none;marker-end:none;paint-order:normal;color-rendering:auto;image-rendering:auto;shape-rendering:auto;text-rendering:auto;enable-background:accumulate"/></g></svg>